<svg width="24" height="16" viewBox="0 0 24 16" fill="none" xmlns="http://www.w3.org/2000/svg">
<path fill-rule="evenodd" clip-rule="evenodd" d="M23.4493 1.77512C23.6161 1.21306 23.4493 0.800049 22.6553 0.800049H20.0297C19.3621 0.800049 19.0543 1.15683 18.8874 1.55025C18.8874 1.55025 17.5521 4.83829 15.6606 6.97409C15.0487 7.59233 14.7705 7.78904 14.4367 7.78904C14.2698 7.78904 14.0282 7.59233 14.0282 7.03031V1.77512C14.0282 1.10065 13.8345 0.800049 13.2781 0.800049H9.15213C8.73494 0.800049 8.48403 1.11309 8.48403 1.40977C8.48403 2.04916 9.42974 2.19661 9.52722 3.99522V7.9015C9.52722 8.75794 9.37413 8.91322 9.04032 8.91322C8.15023 8.91322 5.98507 5.61049 4.70093 1.83131C4.44927 1.09676 4.19686 0.800049 3.52583 0.800049H0.900217C0.150043 0.800049 0 1.15683 0 1.55025C0 2.25284 0.89014 5.73759 4.14464 10.3464C6.31429 13.4939 9.37118 15.2 12.1528 15.2C13.8218 15.2 14.0283 14.8211 14.0283 14.1684V11.7895C14.0283 11.0316 14.1864 10.8804 14.7149 10.8804C15.1043 10.8804 15.7719 11.0771 17.3296 12.5946C19.1099 14.3932 19.4034 15.2 20.4047 15.2H23.0304C23.7805 15.2 24.1556 14.8211 23.9392 14.0733C23.7024 13.3279 22.8525 12.2466 21.7247 10.9647C21.1127 10.234 20.1947 9.44717 19.9165 9.05365C19.5271 8.54787 19.6384 8.32299 19.9165 7.87339C19.9165 7.87339 23.1155 3.32074 23.4493 1.77512Z" fill="#222222"/>
</svg>
